# xmcd CD database file
#
# Track frame offsets:
#	150
#	12363
#	28012
#	47744
#	65587
#	84202
#
# Disc length: 1375 seconds
#
# Revision: 0
# Processed by: cddbd v1.5.1PL0 Copyright (c) Steve Scherf et al.
# Submitted via: CDex 1.51
#
DISCID=42055d06
DTITLE=DUSTAR-3 - DUSTAR II
DYEAR=2004
DGENRE=Punk Rock
TTITLE0=裸男Ｓ
TTITLE1=オセロ
TTITLE2=CAT BOY
TTITLE3=スナイパー
TTITLE4=KISS ME BABY 〜愛よ、地球に降りそそげ〜
TTITLE5=見下してもいいですか？
EXTD=YEAR: 2004
EXTT0=
EXTT1=
EXTT2=
EXTT3=
EXTT4=
EXTT5=
PLAYORDER=
